HIERARCHY
ROOT Hips
{
	OFFSET 0.000000 0.000000 0.000000
	CHANNELS 6 Xposition Yposition Zposition Zrotation Yrotation Xrotation 
	JOINT LHipJoint
	{
		OFFSET 0.000000 0.000000 0.000000
		CHANNELS 3 Zrotation Yrotation Xrotation
		JOINT LeftUpLeg
		{
			OFFSET 1.363060 -1.794630 0.839290
			CHANNELS 3 Zrotation Yrotation Xrotation
			JOINT LeftLeg
			{
				OFFSET 2.448110 -6.726130 0.000000
				CHANNELS 3 Zrotation Yrotation Xrotation
				JOINT LeftFoot
				{
					OFFSET 2.562200 -7.039590 0.000000
					CHANNELS 3 Zrotation Yrotation Xrotation
					JOINT LeftToeBase
					{
						OFFSET 0.157640 -0.433110 2.322550
						CHANNELS 3 Zrotation Yrotation Xrotation
						End Site
						{
							OFFSET 0.000000 0.000000 0.000000
						}
					}
				}
			}
		}
	}
	JOINT RHipJoint
	{
		OFFSET 0.000000 0.000000 0.000000
		CHANNELS 3 Zrotation Yrotation Xrotation
		JOINT RightUpLeg
		{
			OFFSET -1.305520 -1.794630 0.839290
			CHANNELS 3 Zrotation Yrotation Xrotation
			JOINT RightLeg
			{
				OFFSET -2.542530 -6.985550 0.000000
				CHANNELS 3 Zrotation Yrotation Xrotation
				JOINT RightFoot
				{
					OFFSET -2.568260 -7.056230 0.000000
					CHANNELS 3 Zrotation Yrotation Xrotation
					JOINT RightToeBase
					{
						OFFSET -0.164730 -0.452590 2.363150
						CHANNELS 3 Zrotation Yrotation Xrotation
						End Site
						{
							OFFSET 0.000000 0.000000 0.000000
						}
					}
				}
			}
		}
	}
	JOINT LowerBack
	{
		OFFSET 0.000000 0.000000 0.000000
		CHANNELS 3 Zrotation Yrotation Xrotation
		JOINT Spine
		{
			OFFSET 0.028270 2.035590 -0.193380
			CHANNELS 3 Zrotation Yrotation Xrotation
			JOINT Spine1
			{
				OFFSET 0.056720 2.048850 -0.042750
				CHANNELS 3 Zrotation Yrotation Xrotation
				JOINT Neck
				{
					OFFSET 0.000000 0.000000 0.000000
					CHANNELS 3 Zrotation Yrotation Xrotation
					JOINT Neck1
					{
						OFFSET -0.054170 1.746240 0.172020
						CHANNELS 3 Zrotation Yrotation Xrotation
						JOINT Head
						{
							OFFSET 0.104070 1.761360 -0.123970
							CHANNELS 3 Zrotation Yrotation Xrotation
							End Site
							{
								OFFSET 0.000000 0.000000 0.000000
							}
						}
					}
				}
				JOINT LeftShoulder
				{
					OFFSET 0.000000 0.000000 0.000000
					CHANNELS 3 Zrotation Yrotation Xrotation
					JOINT LeftArm
					{
						OFFSET 3.362410 1.200890 -0.311210
						CHANNELS 3 Zrotation Yrotation Xrotation
						JOINT LeftForeArm
						{
							OFFSET 4.983000 -0.000000 -0.000000
							CHANNELS 3 Zrotation Yrotation Xrotation
							JOINT LeftHand
							{
								OFFSET 3.483560 -0.000000 -0.000000
								CHANNELS 3 Zrotation Yrotation Xrotation
								JOINT LeftFingerBase
								{
									OFFSET 0.000000 0.000000 0.000000
									CHANNELS 3 Zrotation Yrotation Xrotation
									JOINT LeftHandIndex1
									{
										OFFSET 0.715260 -0.000000 -0.000000
										CHANNELS 3 Zrotation Yrotation Xrotation
										End Site
										{
											OFFSET 0.000000 0.000000 0.000000
										}
									}
								}
								JOINT LThumb
								{
									OFFSET 0.000000 0.000000 0.000000
									CHANNELS 3 Zrotation Yrotation Xrotation
									End Site
									{
										OFFSET 0.000000 0.000000 0.000000
									}
								}
							}
						}
					}
				}
				JOINT RightShoulder
				{
					OFFSET 0.000000 0.000000 0.000000
					CHANNELS 3 Zrotation Yrotation Xrotation
					JOINT RightArm
					{
						OFFSET -3.136600 1.374050 -0.404650
						CHANNELS 3 Zrotation Yrotation Xrotation
						JOINT RightForeArm
						{
							OFFSET -5.241900 -0.000000 -0.000000
							CHANNELS 3 Zrotation Yrotation Xrotation
							JOINT RightHand
							{
								OFFSET -3.444170 -0.000000 -0.000000
								CHANNELS 3 Zrotation Yrotation Xrotation
								JOINT RightFingerBase
								{
									OFFSET 0.000000 0.000000 0.000000
									CHANNELS 3 Zrotation Yrotation Xrotation
									JOINT RightHandIndex1
									{
										OFFSET -0.622530 -0.000000 -0.000000
										CHANNELS 3 Zrotation Yrotation Xrotation
										End Site
										{
											OFFSET 0.000000 0.000000 0.000000
										}
									}
								}
								JOINT RThumb
								{
									OFFSET 0.000000 0.000000 0.000000
									CHANNELS 3 Zrotation Yrotation Xrotation
									End Site
									{
										OFFSET 0.000000 0.000000 0.000000
									}
								}
							}
						}
					}
				}
			}
		}
	}
}
MOTION
Frames: 9
Frame Time: 0.008333
-14.922441 17.541544 -0.494285 -174.187340 85.330163 -171.358085 -5.620479 -3.070308 0.236161 -13.526717 4.896640 -12.025844 1.260223 9.928512 26.199162 1.129915 -16.833165 -4.295029 1.125200 6.737900 18.941100 3.718743 2.818701 -1.004776 16.641414 -4.248034 -13.706768 -3.068313 -12.823224 35.457159 -0.524657 -2.246660 -16.180877 -0.602100 -4.967200 13.814900 -1.921351 -0.622467 4.175014 2.102949 -0.673611 -2.838530 6.470533 -0.389610 1.095454 -9.815876 -3.522001 -11.562328 3.418776 -1.883320 23.980296 3.090500 -1.521300 15.589800 -0.097207 -1.194189 0.259535 -88.100983 3.551105 15.578915 9.977110 -19.365652 -1.908989 0.185016 0.453658 3.491780 21.240452 21.133211 7.746000 -7.125000 0.000000 0.000000 -7.622700 51.825800 -1.287400 1.977562 1.146250 -0.371627 78.350969 3.053298 19.385743 -15.141662 23.868388 -3.634123 0.481247 -0.136309 -12.737397 -22.897194 12.165901 -5.286700 7.125000 0.000000 0.000000 2.708000 -16.539500 1.827100 
-14.917174 17.545291 -0.480510 -171.913584 85.312182 -169.013913 -5.599639 -3.081419 0.231900 -13.266200 5.018803 -12.118837 1.270258 9.919463 26.206490 1.119827 -17.016273 -4.070917 1.269900 7.142500 20.138300 3.727366 2.808273 -1.002703 16.894013 -4.242024 -13.776619 -3.061412 -12.824621 35.439386 -0.536281 -2.197146 -16.207366 -0.610600 -5.001200 13.912000 -1.926000 -0.766313 4.120591 2.191967 -0.861091 -2.846870 6.698813 -0.490326 1.142116 -9.786211 -3.318196 -11.669038 3.418456 -1.574906 24.016383 3.099800 -1.393000 15.600800 -0.075642 -1.203101 0.258055 -88.149147 3.732543 14.729520 9.918578 -19.294792 -1.896268 0.183101 0.454228 3.795388 20.923552 21.219721 7.651600 -7.125000 0.000000 0.000000 -7.962000 51.859600 -1.352000 2.001485 1.138979 -0.377422 78.167118 3.170296 19.936954 -15.300596 24.070899 -3.699501 0.465521 -0.127960 -12.350066 -22.513473 11.922566 -5.081600 7.125000 0.000000 0.000000 2.970500 -16.856200 1.984200 
-14.912211 17.543569 -0.463291 -172.761382 85.482464 -169.727107 -5.616381 -3.077040 0.227000 -13.314380 4.781656 -12.104882 1.257247 9.918847 26.183491 1.163149 -16.664992 -4.603009 1.124500 6.735700 18.934600 3.725767 2.818432 -1.007620 16.846446 -4.350072 -13.993633 -3.081404 -12.838828 35.512225 -0.562145 -2.054746 -16.179739 -0.566100 -4.818800 13.392500 -2.124380 -0.797158 3.952965 2.200859 -0.907334 -2.850786 6.848085 -0.519389 1.241682 -10.096689 -3.251030 -11.790981 3.562759 -1.384757 24.076667 3.270400 -1.355600 15.669100 -0.079037 -1.196037 0.254838 -88.204981 3.972886 14.370077 9.946348 -19.343293 -1.907257 0.182337 0.457648 4.043391 20.817626 21.605688 7.742800 -7.125000 0.000000 0.000000 -8.193400 52.235900 -1.467500 1.991430 1.139970 -0.379883 78.078979 3.242165 20.393119 -15.519990 24.360811 -3.794450 0.457576 -0.118201 -12.401601 -22.350348 11.782197 -4.978600 7.125000 0.000000 0.000000 3.081300 -17.035000 2.046400 
-14.908565 17.539113 -0.454377 -175.411722 85.716885 -172.309684 -5.640865 -3.065361 0.216191 -13.551850 4.411608 -12.017065 1.250539 9.954450 26.249957 1.196875 -16.145837 -5.131880 1.069800 6.575200 18.462800 3.720186 2.835376 -1.011929 16.605501 -4.451051 -14.063255 -3.087392 -12.827361 35.505856 -0.602825 -1.818970 -16.109001 -0.577700 -4.867300 13.530400 -2.193044 -0.688408 3.838194 2.101371 -0.766344 -2.826099 6.592388 -0.447679 1.358046 -10.066784 -3.223461 -11.903184 3.574141 -1.340829 24.115977 3.287000 -1.337000 15.721700 -0.101381 -1.189350 0.256897 -87.819685 4.263843 15.331080 10.080775 -19.533460 -1.943216 0.174592 0.459627 3.020339 21.046741 21.897019 7.937500 -7.125000 0.000000 0.000000 -8.065000 52.578900 -1.512200 1.965307 1.139327 -0.379480 78.264916 3.326348 20.673655 -15.736731 24.644549 -3.889512 0.462103 -0.108546 -12.768546 -22.561281 11.641195 -4.970400 7.125000 0.000000 0.000000 2.924200 -17.172500 1.933000 
-14.906438 17.534352 -0.448199 -173.943432 85.720947 -170.936697 -5.626285 -3.074391 0.208069 -13.409628 4.433447 -11.955512 1.269496 9.980497 26.344363 1.196028 -16.141252 -5.099693 1.040800 6.488200 18.207800 3.723033 2.819512 -1.007459 16.730688 -4.395763 -13.887312 -3.081556 -12.832730 35.486624 -0.667306 -1.536076 -16.226767 -0.709500 -5.383300 15.005200 -1.885490 -0.599136 3.958979 2.038621 -0.638007 -2.790776 6.205274 -0.379686 1.363823 -9.599477 -3.176421 -11.878694 3.365503 -1.401586 24.010052 3.060000 -1.307900 15.621200 -0.106045 -1.203294 0.267074 -87.373329 4.445072 16.463816 10.145545 -19.619324 -1.957078 0.165188 0.461081 1.929083 21.203483 22.143330 8.089200 -7.125000 0.000000 0.000000 -7.993200 52.863700 -1.554500 1.960901 1.129253 -0.377623 78.524850 3.410806 20.800226 -15.908740 24.861735 -3.965046 0.463919 -0.107020 -13.214677 -22.688997 11.778874 -5.059100 7.125000 0.000000 0.000000 2.841100 -17.009700 1.888000 
-14.902690 17.532326 -0.436450 -169.013684 85.630851 -166.056977 -5.586519 -3.102735 0.195173 -12.959956 4.569845 -11.982098 1.302694 10.000426 26.463043 1.216575 -16.200555 -5.204873 0.844600 5.861800 16.384000 3.740745 2.782379 -0.991185 17.159617 -4.458266 -13.867319 -3.067545 -12.842619 35.447983 -0.719641 -1.277238 -16.267042 -0.777900 -5.631300 15.718300 -1.300820 -0.489893 4.026372 1.986296 -0.474602 -2.781857 5.721102 -0.292733 1.299534 -9.074281 -3.237373 -11.707226 3.207877 -1.668376 23.829830 2.835900 -1.348300 15.450900 -0.108095 -1.216454 0.277595 -87.120363 4.507349 16.191489 10.074779 -19.493676 -1.933656 0.170516 0.453936 2.229415 21.407157 22.012526 8.128500 -7.125000 0.000000 0.000000 -7.747600 52.771800 -1.488800 1.947619 1.117626 -0.377088 78.851883 3.309859 20.825230 -16.124143 25.144274 -4.063521 0.458492 -0.108447 -13.473153 -22.661361 12.026571 -5.154000 7.125000 0.000000 0.000000 2.876600 -16.744200 1.928400 
-14.896410 17.531010 -0.424295 -166.494752 85.691500 -163.466711 -5.573540 -3.114049 0.177445 -12.747194 4.236447 -11.908341 1.313952 10.023218 26.555851 1.247782 -15.873223 -5.555279 0.867700 5.939400 16.608800 3.754169 2.766756 -0.978269 17.365115 -4.691207 -14.078678 -3.061653 -12.842879 35.425140 -0.715829 -1.224715 -16.105470 -0.640000 -5.118100 14.245600 -1.004054 -0.407845 3.940297 1.949081 -0.357646 -2.790538 5.492156 -0.233907 1.300491 -9.136898 -3.295769 -11.683317 3.338858 -1.752586 23.849130 2.933100 -1.383300 15.477800 -0.117987 -1.213420 0.276765 -87.178958 4.558886 14.904220 10.018172 -19.382258 -1.915765 0.175775 0.444506 3.283313 21.084392 21.718947 7.896000 -7.125000 0.000000 0.000000 -7.971000 52.417300 -1.462800 1.920465 1.117162 -0.379355 78.993352 3.199356 21.072332 -16.325530 25.411658 -4.156441 0.462657 -0.105389 -13.302168 -23.004374 11.909376 -5.189800 7.125000 0.000000 0.000000 2.628500 -16.839600 1.756200 
-14.887396 17.525337 -0.411938 -168.302618 85.923866 -165.239110 -5.595349 -3.103192 0.171788 -12.915242 3.877722 -11.770432 1.311517 10.056069 26.627634 1.252951 -15.512725 -5.752052 1.124300 6.735300 18.933600 3.744247 2.776636 -0.979996 17.200338 -4.778486 -14.127955 -3.066019 -12.833635 35.417679 -0.737953 -1.047836 -15.957750 -0.578900 -4.872000 13.543900 -1.171046 -0.352985 3.864106 1.905521 -0.288806 -2.783935 5.522960 -0.203547 1.365034 -9.721365 -3.350972 -11.795517 3.691134 -1.678851 23.990510 3.292100 -1.418400 15.642900 -0.143200 -1.195799 0.271044 -87.221944 4.659488 14.055009 10.015903 -19.351960 -1.910524 0.169065 0.437055 4.218353 20.114965 21.572899 7.461500 -7.125000 0.000000 0.000000 -8.877600 52.103000 -1.562600 1.881742 1.130048 -0.378509 79.059487 3.170281 21.332399 -16.482276 25.621022 -4.229834 0.464891 -0.103531 -13.090959 -23.255510 11.804495 -5.206800 7.125000 0.000000 0.000000 2.446100 -16.930700 1.629200 
-14.878989 17.520982 -0.396441 -172.712639 86.235088 -169.703189 -5.618042 -3.074989 0.180614 -13.251579 3.817776 -11.695350 1.314568 10.106526 26.726875 1.240594 -15.238243 -5.790906 1.217000 6.997600 19.708300 3.727774 2.805751 -0.990029 16.861480 -4.746166 -13.974196 -3.067204 -12.809379 35.381232 -0.782124 -0.793122 -15.892378 -0.638000 -5.110400 14.223800 -1.545148 -0.255859 3.906381 1.831404 -0.171115 -2.768913 5.553198 -0.144577 1.376378 -10.116415 -3.429970 -11.834033 3.942379 -1.700947 24.047965 3.536600 -1.469700 15.730200 -0.170354 -1.178457 0.270008 -87.130713 4.924773 14.021372 10.116523 -19.483267 -1.936340 0.159127 0.434302 4.520837 19.410928 21.632757 7.205200 -7.125000 0.000000 0.000000 -9.587600 52.045700 -1.675800 1.843654 1.148203 -0.374797 79.224930 3.104548 21.293008 -16.693258 25.896562 -4.329631 0.449209 -0.104093 -13.011860 -22.909233 11.974402 -5.188100 7.125000 0.000000 0.000000 2.705800 -16.786800 1.811100 
